<svg transform="scale(2)" id="_0970_Page_Not_Found_4" xmlns="http://www.w3.org/2000/svg" viewBox="0 0 500 500" class="show_show__wrapper__graphic__5Waiy "><title>React</title><defs><style>.cls-1{fill:#d6b2a4;}.cls-2{fill:#fff;}.cls-3{fill:#3c4368;}.cls-4{fill:#ffde91;}.cls-5{fill:#af93a2;}.cls-6{fill:#292e54;}.cls-7{fill:#e6e7e8;}.cls-8{fill:#bcbec0;}</style></defs><g id="character"><path class="cls-5" d="M272.28,354.01c-4.04,15.58-3.45,31.62-1.97,47.56,.6,6.42,5.82,11.43,12.26,11.78l67.22,3.65c4.68,.25,9.77,.42,13.62-1.85,4.99-2.93,5.96-8.69,6.48-13.78,1.38-13.35,2.77-26.7,4.15-40.05,1.31-12.69,2.51-26.02-3.68-37.63-8.55-16.04-37.13-28-57.16-19.36-21.04,9.07-36.08,31-40.92,49.67Z"></path><path class="cls-4" d="M222.05,221.05c-12.41,9.57-24.12,21.97-26.4,37.48-3.24,22.09,14.51,42.9,35.37,50.86,20.85,7.97,43.99,6.17,66.23,4.26,5.26-7.54,1.35-18.7-6.04-24.19-7.39-5.48-17.04-6.66-26.23-7.17-11.07-.62-24.4-1.86-29.37-11.77-5.27-10.49,2.99-22.63,11.61-30.6,11.07-10.24,23.62-18.89,37.14-25.58,6.29-3.12,13.26-6.25,16.45-12.5,11.53-22.59-22.25-9.87-29.1-7.51-17.85,6.14-34.71,15.19-49.66,26.72Z"></path><path class="cls-3" d="M395.46,230.74c3.39,9.21,9.26,17.49,16.82,23.74,3.91,3.24,8.83,7.62,6.96,12.34-1.16,2.92-4.5,4.26-7.55,5.05-20.54,5.29-42.95-.6-60.36-12.72-17.41-12.12-30.22-29.93-39.52-49-4.45-9.12-7.9-20.84-1.5-28.71,6.86-8.45,20.15-7.23,29.83-7.34,9-.1,20.18-2.33,28.96,.27,9.08,2.69,14.61,12.57,17.67,20.89,1.63,4.42,5,34.45,8.69,35.48Z"></path><path class="cls-4" d="M347.03,208.71c-2.26-8.89-5.93-18.91-15.77-23.03-6.35-2.66-13.95-2.07-20.27,.18-6.31,2.26-11.6,6.01-16.79,9.71-9.03,6.45-18.15,12.96-25.13,21-6.98,8.04-11.73,17.85-10.9,27.99,.68,8.31,4.98,16.21,9.27,23.87,13.48,24.05,27.52,47.94,43.71,70.88,3.33,4.72,7.68,9.92,14.1,10.57,5.06,.51,9.63-2.09,13.27-4.9,21.06-16.24,20.59-35.45,19.78-58-.93-26.2-4.72-52.43-11.3-78.28Z"></path><path class="cls-2" d="M311.17,339.81c-.16,0-.31-.07-.41-.21-17.1-24.22-31.71-49.44-43.74-70.92-4.04-7.22-8.63-15.41-9.33-24.08-.96-11.83,5.46-21.95,11.02-28.36,7.05-8.12,16.28-14.71,25.22-21.08,.22-.16,.54-.11,.7,.12,.16,.22,.11,.54-.12,.7-8.88,6.34-18.07,12.89-25.04,20.92-5.43,6.26-11.71,16.13-10.78,27.62,.69,8.45,5.22,16.54,9.21,23.67,12.02,21.46,26.61,46.65,43.68,70.83,.16,.23,.11,.54-.12,.7-.09,.06-.19,.09-.29,.09Z"></path><path class="cls-3" d="M348.7,175.86c.45,7.66-3.11,15.44-9.21,20.09-7.11,5.43-16.62,6.37-25.57,6.51-10.61,.16-21.85-.72-30.54-6.8-8.69-6.08-13.39-18.96-7.39-27.7,5.05-7.36,15.04-9.03,23.91-10.05,17.69-2.04,48.25-10.41,48.79,17.95Z"></path><path class="cls-3" d="M272.5,28.85c13.7-8.09,32.53-10.16,47-3.63,13.29,6,21.19,17.84,32.08,26.64,9.31,7.52,21.58,13.67,25.1,24.23,2.74,8.24-.68,17.08-4.45,25.14-11.04,23.65-25.36,46.27-43.04,66.88-4.34,5.06-9.07,10.14-15.48,13.21-6.41,3.07-14.95,3.68-20.65-.09-5.91-3.91-7.09-11-8.08-17.36-3.29-21.06-9.35-41.75-17.99-61.6-4.32-9.92-9.29-19.63-14.88-29.06-5.08-8.58-5.11-12.74-.45-21.98,4.45-8.83,11.49-16.85,20.84-22.37Z"></path><path class="cls-1" d="M282.59,160.65c2.18,3.77,4.55,7.57,8.08,10.43,3.53,2.86,8.48,4.64,13.05,3.64,5.47-1.2,8.9-5.89,11.41-10.37,16.88-30.23,14.92-66.03,12.29-100.01-.29-3.7-.66-7.61-3.09-10.65-4.44-5.55-13.5-5.76-20.95-4.64-17.6,2.63-42.25,10.73-53.16,24.14-5.04,6.19,2.64,18.48,5.22,25.78,3.48,9.86,7.15,19.67,11.24,29.35,4.66,11.01,9.86,21.86,15.92,32.33Z"></path><path class="cls-3" d="M250.72,65.24c-4.31,7.99-6.22,17.04-8.09,25.97-.74,3.52-1.34,7.59,1.1,10.55,3.28,3.98,9.56,3.27,14.49,2.13,21.75-5.03,43.49-10.06,65.24-15.08,5.67-1.31,11.82-2.93,14.96-7.51,3.99-5.84,1.36-14.15-3.08-20.24-6.68-9.17-17.26-15.82-28.56-17.95-11.71-2.2-21.9,1.73-32.8,4.18-10.58,2.38-18.35,8.83-23.26,17.94Z"></path><path class="cls-6" d="M278.59,114.1c-1.69,1.36-1.21,3.81-.6,5.8,.27,.88,.55,1.77,1.13,2.52,.58,.75,1.53,1.34,2.54,1.29,1.23-.05,2.19-1.03,2.5-2.09,.31-1.06,.11-2.18-.09-3.27-.23-1.25-.48-2.54-1.31-3.58-.83-1.03-2.43-1.69-3.7-1.16"></path><path class="cls-6" d="M292.81,115.57c.95,1.89,2.38,3.51,4.14,4.71,.83,.56,1.9,1.04,2.93,.63,1.04-.42,1.62-1.63,1.57-2.68-.04-1.05-.56-1.97-1.06-2.85-.63-1.1-1.28-2.23-2.29-3-1.01-.78-2.47-1.14-3.76-.58-1.29,.57-2.14,2.25-1.45,3.31"></path><path class="cls-2" d="M303.64,188.97c-9.41,0-17.83-2.9-23.79-8.33-.2-.19-.22-.5-.03-.71s.5-.22,.71-.03c7.27,6.62,18.34,9.35,30.37,7.5,10.82-1.66,20.84-6.5,30.54-11.18,.25-.12,.55-.02,.67,.23,.12,.25,.02,.55-.23,.67-9.76,4.71-19.85,9.58-30.82,11.27-2.52,.39-4.99,.58-7.4,.58Z"></path><path class="cls-2" d="M303.97,325.9c-.2,0-.39-.12-.47-.32-7.55-20.18-15.36-41.04-17.92-62.88-2.86-24.37,1.79-46.75,13.08-63.02,.16-.23,.47-.28,.7-.13,.23,.16,.28,.47,.13,.7-11.15,16.07-15.74,38.2-12.91,62.33,2.55,21.72,10.33,42.53,17.86,62.65,.1,.26-.04,.55-.29,.64-.06,.02-.12,.03-.17,.03Z"></path><path class="cls-6" d="M305.96,148.66c.98-.88,2.25-1.61,3.56-1.44,1.31,.16,2.48,1.57,1.99,2.8-.18,.44-.53,.79-.87,1.13-2.86,2.8-5.73,5.6-8.59,8.4-.89,.87-1.83,1.77-3.03,2.11-1.24,.36-2.96-.13-3.21-1.53-.39-2.24,2-1.36,2.96-2.2,2.97-2.6,4.23-6.61,7.18-9.26Z"></path><path class="cls-1" d="M395.84,63.1c-.86-6.83-2.39-14.08-7.3-18.91-4.73-4.66-11.78-6.17-18.42-6.04-10.02,.18-19.94,3.68-27.86,9.82-2.8,2.17-5.52,6.18-3.27,8.92,1.26,1.53,3.5,1.76,5.49,1.69,5.83-.18,11.61-1.8,16.68-4.68,.86,9.36,1.74,18.83,4.93,27.67,3.19,8.84,8.99,17.11,17.41,21.29,8.15,4.04,15.48,.37,14.12-8.61-1.55-10.23-.48-20.81-1.78-31.15Z"></path><path class="cls-2" d="M380.89,64.96c-.26,0-.49-.21-.5-.47-.28-5.31-.6-11.33-3.13-16.39-2.23-4.47-7.25-8.95-13-8.23-.26,.03-.52-.16-.56-.43-.03-.27,.16-.52,.43-.56,6.21-.78,11.63,4,14.01,8.77,2.62,5.25,2.95,11.38,3.23,16.79,.01,.28-.2,.51-.47,.53,0,0-.02,0-.03,0Z"></path><path class="cls-4" d="M415.07,202.02c8.72-.21,19.06-1.84,22.83-9.71,4.2-8.77-2.71-18.57-9.18-25.82-17.52-19.63-35.04-39.25-52.56-58.88,9.76-9.99,19.51-19.99,29.27-29.98,20.3,23.71,40.6,47.42,60.91,71.14,8.47,9.89,17.11,20.07,21.49,32.32,4.38,12.25,3.65,27.22-5.22,36.75-10.28,11.04-27.32,11.46-42.4,11.1-31.92-.76-66.88-1.98-94.42-20.17-5.2-3.44-14.04-8.67-5.08-13.54,4.46-2.42,17.03,2.6,21.65,3.34,17.4,2.77,35.1,3.88,52.71,3.45Z"></path></g><g id="book"><path class="cls-6" d="M419.34,354.01c4.64,.84,10.26,2.62,11.03,7.27,.46,2.8-1.14,5.47-2.68,7.85-21.87,33.83-43.75,67.66-65.62,101.49-1.94,3.01-4.11,6.19-7.45,7.46-5.9,2.23-11.94-2.44-16.82-6.44-10.4-8.51-22.16-15.38-34.74-20.09-17.39-6.5-36.03-8.8-54.46-11.05-74.5-9.09-149.67-18.19-224.41-11.44,19.72-28.22,42.41-55,70.96-74.23,28.55-19.24,63.63-30.43,97.69-25.38,17.14,2.54,33.49,9.04,50.62,11.67,23.08,3.55,46.56-.02,69.86-1.48,20-1.25,38.75,.16,57.9,6.16,15.23,4.77,32.4,5.37,48.13,8.21Z"></path><path class="cls-8" d="M411.61,319.87c-4.82,17.78-6.5,36.41-4.95,54.77-24.27,24.35-43.23,53.96-55.21,86.19-41.26-29.14-94.67-34.44-145.16-32.98-6.28,.18-12.61,.45-18.78-.73-9.79-1.86-18.5-7.21-27.7-11.03-19.88-8.27-42.16-9.38-63.51-6.64-21.36,2.74-42.04,9.16-62.6,15.55,15.07-25.96,30.38-52.24,51.64-73.43,21.26-21.19,49.52-37.04,79.53-37.04,26.28,0,51.23,12.02,72.52,27.42-.37-.26,26.2-17.63,28.9-18.92,10.95-5.25,22.6-9,34.55-11.16,21.95-3.98,42.45-.58,64.17,2.57,15.47,2.24,31.08,3.67,46.61,5.44Z"></path><path class="cls-7" d="M159.64,298.65c-10.12-.78-20.57-.45-29.99,3.34-9.46,3.82-17.2,10.85-24.69,17.78-32.5,30.08-64.31,60.9-95.41,92.43,29.93-4.74,58.98-14.75,89.16-17.4,30.19-2.65,63.33,3.47,83.87,25.75,17.7-21.39,35.03-43.96,49.17-67.9,4.9-8.29,18.81-3.43,11.7-11.54-7.85-8.95-31.89-28.45-42.7-32.83-13.1-5.31-27.03-8.55-41.12-9.64Z"></path><path class="cls-8" d="M182.6,415.54c-4.86-15.51-15.29-29.21-28.95-38.02,6.27,.26,12.55,.52,18.82,.77-3.31-5.17-6.62-10.35-9.93-15.52,6.34,1.3,12.67,2.6,19.01,3.9,.83-5.93-1.14-12.18-5.21-16.57,4.87,1.52,9.74,3.03,14.61,4.55,1.07-5.44-.3-11.31-3.66-15.72,4.9,1.3,9.8,2.6,14.7,3.9-.24-5.55-2.71-10.97-6.75-14.78,5.96,1.14,11.93,2.29,17.89,3.43,.03-5.07-1.61-10.14-4.62-14.22,4.5-.14,9.04,1.23,12.71,3.84-.16-6.85-2.22-13.64-5.89-19.42,14.17,7.39,23.99,22.52,24.99,38.47-19.83,22.95-46.54,46.65-57.72,75.38Z"></path><path class="cls-2" d="M346.78,442.28c-.11,0-.21-.03-.3-.1-21.21-15.99-48.5-18.14-79.4-19.17-26.75-.89-53.87-1.76-80.61-2.58-.28,0-.49-.24-.48-.52,0-.28,.19-.49,.52-.48,26.74,.82,53.87,1.69,80.62,2.58,30.81,1.03,58.07,3.17,79.44,18.98,15.52-39.37,34.55-77.64,56.58-113.77,.14-.24,.45-.31,.69-.17,.24,.14,.31,.45,.17,.69-22.11,36.26-41.2,74.69-56.74,114.22-.06,.15-.18,.26-.33,.3-.04,.01-.09,.02-.14,.02Z"></path><path class="cls-7" d="M246.21,333.32c-11.61,11.44-21.22,24.72-30.78,37.93-12.18,16.83-24.36,33.66-36.53,50.49,32.96-8.04,67.31-11.36,100.96-7.05,33.65,4.31,66.6,16.47,93.44,37.21,2.57-24.33,5.89-48.58,9.96-72.7,2.02-11.95,4.22-23.86,6.6-35.74,2.26-11.26,6.36-23.09,7.36-34.5,1.54-17.67-28.79-17.12-40.96-17.55-19.06-.67-38.25,2.32-56.24,8.66-20.05,7.06-38.65,18.32-53.81,33.26Z"></path><path class="cls-8" d="M359.17,419.06c-.09,0-.18-.02-.26-.07-50.17-30.38-114.92-35.14-168.99-12.4-.25,.11-.55-.01-.65-.27-.11-.25,.01-.55,.27-.65,54.36-22.86,119.45-18.08,169.89,12.46,.24,.14,.31,.45,.17,.69-.09,.16-.26,.24-.43,.24Z"></path><path class="cls-8" d="M200.98,393.13c-.19,0-.38-.11-.46-.3-.11-.25,0-.55,.26-.66,51.19-22.39,110.67-24.32,163.2-5.29,.26,.09,.39,.38,.3,.64-.09,.26-.38,.39-.64,.3-52.29-18.94-111.51-17.01-162.46,5.27-.07,.03-.13,.04-.2,.04Z"></path><path class="cls-8" d="M210.55,378.14c-.19,0-.38-.11-.46-.3-.11-.25,0-.55,.25-.66,48.51-21.45,103.58-26.26,155.08-13.54,.27,.07,.43,.34,.37,.61-.07,.27-.33,.43-.61,.37-51.28-12.67-106.12-7.88-154.44,13.49-.07,.03-.13,.04-.2,.04Z"></path><path class="cls-8" d="M224.99,364.04c-.19,0-.38-.11-.46-.3-.11-.25,0-.55,.25-.66,44.23-19.58,94.87-26,142.59-18.09,.27,.05,.46,.3,.41,.57s-.3,.46-.58,.41c-47.53-7.88-97.97-1.48-142.03,18.02-.07,.03-.13,.04-.2,.04Z"></path><path class="cls-8" d="M237.43,352.13c-.19,0-.37-.11-.46-.29-.11-.25,0-.55,.25-.66,41.28-18.71,86.99-26.83,132.19-23.48,.28,.02,.48,.26,.46,.54-.02,.28-.26,.48-.54,.46-45.03-3.34-90.57,4.75-131.7,23.39-.07,.03-.14,.04-.21,.04Z"></path><path class="cls-8" d="M250.89,336.79c-.18,0-.36-.1-.45-.27-.13-.25-.03-.55,.22-.67,38.49-19.72,81.62-28.59,124.78-25.65,.28,.02,.48,.26,.46,.53-.02,.28-.26,.48-.53,.46-42.96-2.93-85.93,5.9-124.26,25.54-.07,.04-.15,.05-.23,.05Z"></path><path class="cls-8" d="M46.84,391.16c-.21,0-.4-.13-.47-.34-.09-.26,.05-.55,.31-.63,32.67-11.08,68-14.44,102.18-9.72,.27,.04,.46,.29,.43,.56-.04,.27-.29,.46-.56,.43-34.02-4.7-69.19-1.36-101.72,9.67-.05,.02-.11,.03-.16,.03Z"></path><path class="cls-8" d="M57.65,375.98c-.21,0-.4-.13-.47-.34-.09-.26,.05-.55,.31-.63,29.91-10.14,63.33-11.78,94.09-4.62,.27,.06,.44,.33,.37,.6-.06,.27-.33,.44-.6,.37-30.58-7.12-63.81-5.49-93.54,4.59-.05,.02-.11,.03-.16,.03Z"></path><path class="cls-8" d="M158.85,357.23s-.09,0-.14-.02c-24.68-7.24-51.01-8.14-76.13-2.6-.27,.06-.54-.11-.6-.38-.06-.27,.11-.54,.38-.6,25.29-5.57,51.78-4.67,76.63,2.61,.26,.08,.42,.36,.34,.62-.06,.22-.26,.36-.48,.36Z"></path><path class="cls-8" d="M167.37,343.85s-.09,0-.14-.02c-23.21-6.6-48.12-8.35-72.03-5.05-.28,.03-.53-.15-.56-.43-.04-.27,.15-.53,.43-.56,24.04-3.32,49.09-1.56,72.44,5.08,.27,.08,.42,.35,.34,.62-.06,.22-.26,.36-.48,.36Z"></path><path class="cls-8" d="M182.88,335.37c-.06,0-.12-.01-.18-.03-19.79-7.72-41.45-11.11-62.65-9.8-.29,.02-.51-.19-.53-.47-.02-.28,.19-.51,.47-.53,21.35-1.32,43.16,2.1,63.08,9.87,.26,.1,.38,.39,.28,.65-.08,.2-.27,.32-.47,.32Z"></path><path class="cls-8" d="M191.68,319.07c-.06,0-.12-.01-.18-.03-18.4-7.21-38.47-9.54-58.03-6.74-.27,.04-.53-.15-.57-.42-.04-.27,.15-.53,.42-.57,19.74-2.83,39.98-.48,58.54,6.8,.26,.1,.38,.39,.28,.65-.08,.2-.27,.32-.47,.32Z"></path></g><g id="question-mark"><g id="X_and_"><path class="cls-3" d="M108.87,136.48c2.93-1.85,4.97-4.8,7.47-7.2,2.5-2.4,5.99-4.35,9.33-3.4,4.93,1.4,6.18,8.16,4.33,12.94-1.86,4.78-5.69,8.54-7.89,13.17-4.02,8.46-2.1,18.42-.1,27.57,3.8-.35,7.51-1.7,10.64-3.88-3.26-7.98-2.75-17.4,1.36-24.98,3.09-5.7,7.97-10.2,11.69-15.51,4.7-6.7,7.4-15.97,3.17-22.98-4.16-6.91-13.71-8.92-21.49-6.77-6.58,1.82-14.81,6.59-19.37,11.8-4.37,5-.36,13.48,.86,19.24Z"></path><path class="cls-3" d="M124.24,186.01c-1.02,1.23-1.71,2.82-1.57,4.42,.13,1.45,.92,2.77,1.94,3.81,1.77,1.8,4.32,2.86,6.84,2.65,4.48-.37,8.97-5.97,5.86-10.22-1.29-1.76-3.81-2.3-5.78-2.82-3.31-.86-4.97-.62-7.28,2.16Z"></path></g><g><path class="cls-3" d="M107.01,234.43c-.18,0-.35-.05-.51-.14-.23-.14-.4-.37-.46-.64-.26-1.14-.53-2.27-.79-3.4-.13-.54,.21-1.08,.74-1.2,.53-.13,1.08,.21,1.2,.74,.19,.8,.37,1.59,.56,2.39l2.36-.66c.54-.15,1.08,.16,1.23,.69,.15,.53-.16,1.08-.69,1.23l-3.37,.95c-.09,.02-.18,.04-.27,.04Z"></path><path class="cls-3" d="M116.78,231.7c-.44,0-.84-.29-.96-.73-.15-.53,.16-1.08,.69-1.23l6.39-1.79c.53-.15,1.08,.16,1.23,.69,.15,.53-.16,1.08-.69,1.23l-6.39,1.79c-.09,.03-.18,.04-.27,.04Zm12.78-3.59c-.44,0-.84-.29-.96-.73-.15-.53,.16-1.08,.69-1.23l6.39-1.79c.54-.15,1.08,.16,1.23,.69,.15,.53-.16,1.08-.69,1.23l-6.39,1.79c-.09,.03-.18,.04-.27,.04Zm12.79-3.59c-.44,0-.84-.29-.96-.73-.15-.53,.16-1.08,.69-1.23l6.39-1.79c.54-.15,1.08,.16,1.23,.69,.15,.53-.16,1.08-.69,1.23l-6.39,1.79c-.09,.03-.18,.04-.27,.04Zm12.78-3.59c-.44,0-.84-.29-.96-.73-.15-.53,.16-1.08,.69-1.23l6.39-1.79c.54-.15,1.08,.16,1.23,.69,.15,.53-.16,1.08-.69,1.23l-6.39,1.79c-.09,.03-.18,.04-.27,.04Zm12.78-3.59c-.44,0-.84-.29-.96-.73-.15-.53,.16-1.08,.69-1.23l6.39-1.79c.53-.15,1.08,.16,1.23,.69,.15,.53-.16,1.08-.69,1.23l-6.39,1.79c-.09,.03-.18,.04-.27,.04Zm12.78-3.59c-.44,0-.84-.29-.96-.73-.15-.53,.16-1.08,.69-1.23l6.39-1.79c.54-.15,1.08,.16,1.23,.69,.15,.53-.16,1.08-.69,1.23l-6.39,1.79c-.09,.03-.18,.04-.27,.04Zm12.79-3.59c-.44,0-.84-.29-.96-.73-.15-.53,.16-1.08,.69-1.23l6.39-1.79c.53-.15,1.08,.16,1.23,.69,.15,.53-.16,1.08-.69,1.23l-6.39,1.79c-.09,.03-.18,.04-.27,.04Z"></path><path class="cls-3" d="M206.27,206.59c-.44,0-.84-.29-.96-.73-.15-.53,.16-1.08,.69-1.23l1.14-.32-1.01-.61c-.47-.28-.63-.9-.34-1.37,.28-.47,.9-.63,1.37-.34l3,1.8c.34,.21,.53,.59,.48,.99-.05,.4-.34,.72-.72,.83l-3.37,.95c-.09,.03-.18,.04-.27,.04Z"></path><path class="cls-3" d="M197.82,198.54c-.18,0-.35-.05-.51-.14l-3-1.8c-.27-.16-.44-.44-.48-.75s.08-.62,.3-.83l2.54-2.41c.4-.38,1.03-.37,1.41,.03,.38,.4,.37,1.03-.04,1.41l-1.58,1.51,1.88,1.13c.47,.28,.63,.9,.34,1.37-.19,.31-.52,.48-.86,.48Z"></path><path class="cls-3" d="M200.8,191.05c-.26,0-.53-.1-.72-.31-.38-.4-.36-1.03,.04-1.41l3.44-3.27c.4-.38,1.03-.37,1.41,.04,.38,.4,.37,1.03-.04,1.41l-3.44,3.27c-.19,.18-.44,.28-.69,.28Z"></path><path class="cls-3" d="M207.68,184.5c-.26,0-.53-.1-.72-.31-.38-.4-.37-1.03,.04-1.41l1.17-1.11-1.58-.35c-.54-.12-.88-.65-.76-1.19,.12-.54,.65-.88,1.19-.76l3.42,.75c.36,.08,.65,.35,.75,.71,.1,.36,0,.74-.27,.99l-2.54,2.41c-.19,.18-.44,.28-.69,.28Z"></path><path class="cls-3" d="M202.38,180.37c-.07,0-.14,0-.22-.02l-4.41-.97c-.54-.12-.88-.65-.76-1.19,.12-.54,.65-.88,1.19-.76l4.42,.97c.54,.12,.88,.65,.76,1.19-.1,.47-.52,.79-.98,.79Z"></path><path class="cls-3" d="M193.55,178.44c-.07,0-.14,0-.21-.02l-3.42-.75c-.38-.08-.68-.38-.76-.76-.08-.38,.06-.77,.36-1.01l2.77-2.14c.43-.34,1.06-.26,1.4,.18,.34,.44,.26,1.06-.18,1.4l-1.08,.83,1.33,.29c.54,.12,.88,.65,.76,1.19-.1,.47-.52,.79-.98,.79Z"></path><path class="cls-3" d="M196.27,172.95c-.3,0-.59-.13-.79-.39-.34-.44-.26-1.06,.18-1.4l3.36-2.6c.44-.34,1.06-.26,1.4,.18,.34,.44,.26,1.06-.18,1.4l-3.36,2.6c-.18,.14-.4,.21-.61,.21Z"></path><path class="cls-3" d="M202.99,167.75c-.3,0-.59-.13-.79-.39-.34-.44-.26-1.06,.18-1.4l1.16-.9-1.42-.37c-.53-.14-.85-.69-.71-1.22,.14-.53,.69-.85,1.22-.71l3.39,.88c.37,.1,.65,.39,.73,.77,.08,.37-.07,.76-.37,.99l-2.77,2.14c-.18,.14-.4,.21-.61,.21Z"></path><path class="cls-3" d="M195.65,162.97c-.08,0-.17-.01-.25-.03l-6.72-1.76c-.53-.14-.85-.69-.71-1.22,.14-.53,.69-.85,1.22-.71l6.72,1.76c.53,.14,.85,.69,.71,1.22-.12,.45-.52,.75-.97,.75Z"></path><path class="cls-3" d="M182.2,159.45c-.08,0-.17-.01-.25-.03l-3.39-.88c-.37-.1-.66-.4-.73-.78-.07-.38,.08-.76,.39-.99l2.81-2.08c.44-.33,1.07-.24,1.4,.21s.24,1.07-.21,1.4l-1.13,.84,1.37,.36c.53,.14,.85,.69,.71,1.22-.12,.45-.52,.75-.97,.75Z"></path><path class="cls-3" d="M186.45,152.91c-.31,0-.61-.14-.8-.41-.33-.44-.24-1.07,.21-1.4l4.82-3.57c.45-.33,1.07-.24,1.4,.21,.33,.44,.24,1.07-.21,1.4l-4.83,3.57c-.18,.13-.39,.2-.59,.2Z"></path><path class="cls-3" d="M196.1,145.77c-.31,0-.61-.14-.8-.41-.33-.44-.24-1.07,.21-1.4l1.13-.84-1.37-.36c-.53-.14-.85-.69-.71-1.22,.14-.53,.69-.85,1.22-.71l3.39,.89c.37,.1,.66,.4,.73,.78,.07,.38-.08,.76-.39,.99l-2.81,2.08c-.18,.13-.39,.2-.59,.2Z"></path><path class="cls-3" d="M190.4,141.46c-.08,0-.17-.01-.25-.03l-5.12-1.34c-.53-.14-.85-.69-.71-1.22,.14-.53,.69-.85,1.22-.71l5.12,1.34c.53,.14,.85,.69,.71,1.22-.12,.45-.52,.75-.97,.75Z"></path><path class="cls-3" d="M180.15,138.78c-.08,0-.17-.01-.25-.03l-3.39-.89c-.33-.09-.6-.34-.7-.67-.1-.33-.03-.69,.19-.95l2.27-2.66c.36-.42,.99-.47,1.41-.11,.42,.36,.47,.99,.11,1.41l-1.24,1.45,1.84,.48c.53,.14,.85,.69,.71,1.22-.12,.45-.52,.75-.97,.75Z"></path><path class="cls-3" d="M182.79,130.84c-.23,0-.46-.08-.65-.24-.42-.36-.47-.99-.11-1.41l3.75-4.39c.36-.42,.99-.47,1.41-.11,.42,.36,.47,.99,.11,1.41l-3.75,4.39c-.2,.23-.48,.35-.76,.35Z"></path><path class="cls-3" d="M190.28,122.07c-.23,0-.46-.08-.65-.24-.42-.36-.47-.99-.11-1.41l1.06-1.24-1.62-.19c-.55-.06-.94-.56-.88-1.11,.06-.55,.56-.94,1.11-.88l3.47,.41c.37,.04,.68,.28,.81,.63,.13,.34,.07,.73-.17,1.01l-2.27,2.66c-.2,.23-.48,.35-.76,.35Z"></path><path class="cls-3" d="M185.19,118.54s-.08,0-.12,0l-3.89-.46c-.55-.06-.94-.56-.88-1.11,.06-.55,.56-.94,1.11-.88l3.89,.46c.55,.06,.94,.56,.88,1.11-.06,.51-.49,.88-.99,.88Z"></path><path class="cls-3" d="M177.41,117.63s-.08,0-.12,0l-3.48-.41c-.29-.03-.54-.19-.71-.42-.16-.24-.22-.53-.15-.81,.29-1.17,.67-2.33,1.12-3.46,.21-.51,.79-.76,1.3-.55,.51,.21,.76,.79,.55,1.3-.28,.69-.52,1.39-.73,2.1l2.32,.27c.55,.06,.94,.56,.88,1.11-.06,.51-.49,.88-.99,.88Z"></path><path class="cls-3" d="M179.54,106.55c-.23,0-.47-.08-.66-.25-.42-.36-.46-1-.09-1.41,.25-.28,.5-.56,.77-.84l-1.04-.02c-.55,0-.99-.46-.98-1.02,0-.55,.46-.98,1-.98,0,0,0,0,.02,0l3.5,.05c.42,0,.78,.27,.93,.66s.03,.83-.29,1.1c-.85,.73-1.65,1.52-2.39,2.36-.2,.23-.47,.34-.75,.34Z"></path><path class="cls-3" d="M170.62,103.91h-.01l-3.5-.05c-.38,0-.72-.22-.88-.56-.17-.34-.13-.74,.1-1.04l2.1-2.8c.33-.44,.96-.53,1.4-.2,.44,.33,.53,.96,.2,1.4l-.92,1.23,1.54,.02c.55,0,.99,.46,.99,1.02,0,.55-.45,.98-1,.98Z"></path><path class="cls-3" d="M175.33,92.88c-.21,0-.42-.06-.6-.2-.44-.33-.53-.96-.2-1.4l.92-1.22h-1.53c-.55-.02-1-.47-.99-1.02,0-.55,.45-.99,1-.99h0l3.5,.03c.38,0,.72,.22,.89,.56,.17,.34,.13,.74-.09,1.04l-2.09,2.8c-.2,.26-.5,.4-.8,.4Z"></path><path class="cls-3" d="M165.05,89.96h0l-3.5-.03c-.38,0-.72-.22-.89-.56s-.13-.75,.1-1.05l2.12-2.78c.34-.44,.96-.52,1.4-.19,.44,.34,.52,.96,.19,1.4l-.91,1.19h1.5c.55,.02,1,.47,.99,1.02,0,.55-.45,.99-1,.99Z"></path><path class="cls-3" d="M166.03,84.06c-.21,0-.42-.07-.61-.21-.44-.34-.52-.96-.19-1.4l2.35-3.08c.34-.44,.96-.52,1.4-.19,.44,.34,.52,.96,.19,1.4l-2.35,3.08c-.2,.26-.49,.39-.8,.39Z"></path><path class="cls-3" d="M170.74,77.9c-.21,0-.42-.07-.61-.21-.44-.34-.52-.96-.19-1.4l.99-1.29-1.62-.1c-.55-.03-.97-.51-.94-1.06,.03-.55,.52-.97,1.06-.94l3.49,.22c.37,.02,.69,.25,.85,.58,.15,.34,.11,.73-.11,1.02l-2.12,2.78c-.2,.26-.5,.39-.8,.39Z"></path><path class="cls-3" d="M165.26,74.64s-.04,0-.06,0l-4.12-.26c-.55-.03-.97-.51-.94-1.06,.03-.55,.49-.97,1.06-.94l4.12,.26c.55,.03,.97,.51,.94,1.06-.03,.53-.47,.94-1,.94Z"></path><path class="cls-3" d="M157.02,74.13s-.04,0-.06,0l-3.49-.22c-.42-.03-.78-.31-.9-.71-.12-.4,.02-.83,.36-1.09l2.79-2.11c.44-.33,1.07-.25,1.4,.2,.33,.44,.25,1.07-.2,1.4l-.64,.48,.8,.05c.55,.03,.97,.51,.94,1.06-.03,.53-.47,.94-1,.94Z"></path><path class="cls-3" d="M162.16,67.39c-.3,0-.6-.14-.8-.4-.11-.14-.17-.3-.19-.46-.15-.12-.27-.29-.33-.49-.16-.53,.13-1.09,.66-1.25,1.24-.38,2.2-.82,2.85-1.31,.44-.33,1.07-.25,1.4,.2,.33,.44,.25,1.07-.2,1.4l-2.79,2.11c-.18,.14-.39,.2-.6,.2Z"></path><path class="cls-3" d="M66.09,92c-.37,0-.73-.21-.9-.57-.24-.5-.03-1.1,.47-1.33,2.08-1,4.27-1.99,6.51-2.96,.5-.22,1.09,.02,1.31,.53,.22,.51-.02,1.1-.53,1.31-2.22,.95-4.38,1.93-6.43,2.92-.14,.07-.29,.1-.43,.1Zm13.05-5.61c-.4,0-.78-.24-.93-.64-.2-.52,.06-1.09,.57-1.29,2.13-.82,4.38-1.65,6.69-2.47,.52-.18,1.09,.09,1.28,.61s-.09,1.09-.61,1.28c-2.3,.81-4.53,1.63-6.64,2.45-.12,.05-.24,.07-.36,.07Zm13.4-4.74c-.42,0-.81-.27-.95-.69-.17-.53,.12-1.09,.64-1.26,2.27-.74,4.53-1.45,6.79-2.15,.53-.16,1.09,.14,1.25,.66,.16,.53-.13,1.09-.66,1.25-2.25,.69-4.5,1.4-6.76,2.14-.1,.03-.21,.05-.31,.05Zm13.58-4.18c-.43,0-.83-.28-.96-.72-.16-.53,.15-1.09,.68-1.24,1.41-.41,2.82-.82,4.22-1.22,.87-.25,1.75-.5,2.62-.74,.54-.15,1.08,.16,1.23,.69,.15,.53-.16,1.08-.69,1.23-.87,.24-1.74,.49-2.61,.74-1.39,.4-2.8,.81-4.21,1.22-.09,.03-.19,.04-.28,.04Zm13.69-3.8c-.45,0-.85-.3-.97-.75-.14-.53,.18-1.08,.72-1.22,2.29-.59,4.62-1.16,6.92-1.7,.53-.12,1.08,.21,1.2,.75,.13,.54-.21,1.08-.75,1.2-2.29,.54-4.6,1.11-6.88,1.69-.08,.02-.17,.03-.25,.03Zm13.83-3.25c-.46,0-.88-.32-.98-.79-.11-.54,.23-1.07,.77-1.19,1.26-.27,2.52-.53,3.78-.78,.86-.17,1.95-.32,3.32-.46,.55-.05,1.04,.35,1.09,.9,.05,.55-.35,1.04-.9,1.09-1.31,.13-2.33,.27-3.13,.43-1.25,.25-2.51,.51-3.76,.78-.07,.01-.14,.02-.21,.02Zm14.08-1.75c-.52,0-.96-.4-1-.93-.04-.55,.38-1.03,.93-1.07,2.3-.16,4.74-.34,7.04-.6,.56-.06,1.04,.33,1.11,.88,.06,.55-.33,1.04-.88,1.11-2.33,.27-4.81,.45-7.13,.61-.02,0-.05,0-.07,0Z"></path><path class="cls-3" d="M58.29,100.1c-.36,0-.7-.19-.88-.53-.6-1.11-1.12-2.15-1.59-3.18-.22-.47-.04-1.02,.4-1.28,1.01-.59,2.04-1.17,3.07-1.74,.48-.27,1.09-.09,1.36,.4,.27,.48,.09,1.09-.4,1.36-.75,.41-1.49,.83-2.23,1.25,.35,.73,.73,1.47,1.15,2.25,.26,.49,.08,1.09-.41,1.35-.15,.08-.31,.12-.47,.12Z"></path><path class="cls-3" d="M104.66,224.53c-.45,0-.86-.31-.97-.76-.53-2.16-1.07-4.31-1.62-6.46-.14-.53,.19-1.08,.72-1.22,.53-.14,1.08,.19,1.22,.72,.55,2.16,1.09,4.31,1.62,6.48,.13,.54-.2,1.08-.73,1.21-.08,.02-.16,.03-.24,.03Zm-3.31-12.92c-.44,0-.85-.3-.97-.74-.57-2.14-1.15-4.29-1.74-6.43-.15-.53,.17-1.08,.7-1.23,.54-.15,1.08,.16,1.23,.7,.59,2.15,1.18,4.29,1.75,6.44,.14,.53-.18,1.08-.71,1.22-.09,.02-.17,.03-.26,.03Zm-3.55-12.85c-.44,0-.83-.29-.96-.72-.61-2.13-1.24-4.26-1.87-6.39-.16-.53,.14-1.09,.67-1.24,.54-.16,1.09,.14,1.24,.67,.63,2.13,1.26,4.27,1.87,6.41,.15,.53-.15,1.08-.68,1.24-.09,.03-.19,.04-.28,.04Zm-3.8-12.78c-.43,0-.82-.28-.96-.71-.65-2.12-1.32-4.24-1.99-6.35-.17-.53,.12-1.09,.65-1.26,.52-.17,1.09,.12,1.26,.65,.67,2.12,1.34,4.24,1.99,6.37,.16,.53-.13,1.09-.66,1.25-.1,.03-.2,.04-.29,.04Zm-4.04-12.71c-.42,0-.81-.27-.95-.69-.69-2.11-1.4-4.21-2.11-6.31-.18-.52,.1-1.09,.63-1.27,.52-.18,1.09,.1,1.27,.63,.71,2.11,1.42,4.22,2.12,6.33,.17,.52-.11,1.09-.64,1.26-.1,.03-.21,.05-.31,.05Zm-4.29-12.63c-.41,0-.8-.26-.94-.67l-.45-1.29c-.58-1.66-1.18-3.32-1.78-4.98-.19-.52,.08-1.09,.6-1.28,.52-.19,1.09,.08,1.28,.6,.6,1.66,1.19,3.33,1.78,5l.45,1.29c.18,.52-.09,1.09-.61,1.27-.11,.04-.22,.06-.33,.06Zm-4.53-12.54c-.41,0-.79-.25-.94-.65-.77-2.08-1.56-4.16-2.35-6.23-.2-.52,.06-1.09,.58-1.29,.52-.2,1.09,.06,1.29,.58,.8,2.08,1.58,4.16,2.36,6.25,.19,.52-.07,1.09-.59,1.29-.12,.04-.23,.06-.35,.06Zm-4.76-12.45c-.4,0-.78-.24-.93-.63-.81-2.06-1.64-4.13-2.47-6.18-.21-.51,.04-1.09,.55-1.3,.51-.21,1.09,.04,1.3,.55,.83,2.06,1.66,4.13,2.48,6.2,.2,.51-.05,1.09-.56,1.3-.12,.05-.24,.07-.37,.07Zm-5-12.36c-.39,0-.76-.23-.92-.62l-.4-.95c-.68-1.62-1.46-3.25-2.39-5-.26-.49-.08-1.09,.41-1.35,.49-.26,1.09-.08,1.35,.41,.96,1.8,1.77,3.49,2.47,5.17l.4,.95c.21,.51-.03,1.1-.54,1.31-.12,.05-.26,.08-.38,.08Zm-6.17-11.8c-.33,0-.66-.17-.85-.47-.64-1.03-1.28-2.05-1.92-3.07-.54-.86-1.08-1.72-1.62-2.58-.29-.47-.15-1.09,.32-1.38,.47-.29,1.08-.15,1.38,.32,.53,.85,1.07,1.71,1.61,2.56,.64,1.02,1.29,2.05,1.93,3.09,.29,.47,.14,1.09-.33,1.38-.16,.1-.34,.15-.52,.15Z"></path></g></g></svg>